# xmcd
#
# Track frame offsets: 
#        150
#        16291
#        37322
#        52654
#        68588
#        81368
#        94440
#        108161
#        126175
#        145556
#        159827
#        173457
#
# Disc length: 2611 seconds
#
# Revision: 1
# Processed by: cddbd v1.5.2PL0 Copyright (c) Steve Scherf et al.
# Submitted via: ExactAudioCopy v1.0b3
#
DISCID=8e0a310c
DTITLE=Triumphant Quartet - Home Free
DYEAR=2004
DGENRE=Gospel
TTITLE0=When The Lord Saved Me
TTITLE1=Home Free
TTITLE2=Down Every Road
TTITLE3=A Little Bit-O-Heaven
TTITLE4=Terrible Time Down There
TTITLE5=If Not For The Love Of Christ
TTITLE6=Only The Strong Will Survive
TTITLE7=God's Been Very, Very Good To Me
TTITLE8=An Old Story In A Brand New Song
TTITLE9=Joshua Fit The Battle Of Jericho
TTITLE10=He's Worthy
TTITLE11=The First Time I Saw Love
EXTD=
EXTT0=
EXTT1=
EXTT2=
EXTT3=
EXTT4=
EXTT5=
EXTT6=
EXTT7=
EXTT8=
EXTT9=
EXTT10=
EXTT11=
PLAYORDER=
